<svg width="56" height="56" viewBox="0 0 56 56" fill="none" xmlns="http://www.w3.org/2000/svg">
<g clip-path="url(#clip0)">
<path d="M3.93222 22.5733H5.92092L4.92657 19.6372L3.93222 22.5733Z" fill="#1B1B1B"/>
<path d="M28.6102 20.0565C28.4294 19.9517 28.1582 19.9517 27.887 19.9517H26.0791V21.6294H27.887C28.1582 21.6294 28.4294 21.6294 28.6102 21.5246C28.791 21.4197 28.8814 21.1051 28.8814 20.7905C28.9718 20.3711 28.791 20.1614 28.6102 20.0565Z" fill="#1B1B1B"/>
<path d="M39.548 22.5733H41.6271L40.6328 19.6372L39.548 22.5733Z" fill="#1B1B1B"/>
<path d="M24.1808 37.6727V31.6958L21.8305 34.6318L24.1808 37.6727Z" fill="#1B1B1B"/>
<path d="M14.5085 32.4302V33.7934H17.8531V35.2614H14.5085V36.8343H18.2147L19.9322 34.6322L18.3051 32.4302H14.5085Z" fill="#1B1B1B"/>
<path d="M27.6158 32.4302H25.7175V34.3177H27.7062C28.2486 34.3177 28.6102 34.0031 28.6102 33.3739C28.5198 32.7448 28.1582 32.4302 27.6158 32.4302Z" fill="#1B1B1B"/>
<path d="M55.548 34.2128V29.4941H54.4633H51.7514C50.9379 29.4941 50.3051 29.7039 49.8531 30.1233V29.4941H45.6949C45.0622 29.4941 44.2486 29.7039 43.887 30.1233V29.4941H36.565V30.1233C36.0226 29.599 35.0283 29.4941 34.5763 29.4941H29.6949V30.1233C29.243 29.599 28.1582 29.4941 27.6158 29.4941H22.1921L20.9266 31.067L19.7514 29.4941H11.6158V39.7703H19.5706L20.8362 38.1974L22.0113 39.7703H26.8927V37.3585H27.5254C28.1582 37.3585 28.9718 37.3585 29.6045 37.0439V39.8751H33.6723V37.1488H33.8531C34.1243 37.1488 34.1243 37.1488 34.1243 37.4634V39.8751H46.4181C47.2317 39.8751 48.0452 39.6654 48.4972 39.246V39.8751H52.3842C53.1978 39.8751 54.0113 39.7703 54.5537 39.3508C55.4577 38.7217 56 37.5682 56 36.2051C56 35.4711 55.8192 34.7371 55.548 34.2128ZM27.5254 35.8905H25.7175V38.4071H22.8249L21.017 35.9954L19.1187 38.4071H13.1526V30.9622H19.2091L21.017 33.3739L22.9153 30.9622H27.7062C28.8814 30.9622 30.2373 31.3816 30.2373 33.3739C30.1469 35.4711 28.8814 35.8905 27.5254 35.8905ZM36.565 35.4711C36.7458 35.7856 36.8362 36.2051 36.8362 36.8342V38.3022H35.2995V37.3585C35.2995 36.9391 35.2995 36.2051 35.0283 35.8905C34.8475 35.5759 34.4859 35.5759 33.9435 35.5759H32.3164V38.3022H30.7797V30.8573H34.2147C34.9379 30.8573 35.5706 30.8573 36.0226 31.1719C36.4746 31.4865 36.8362 32.0107 36.8362 32.8496C36.8362 34.0031 36.2034 34.6322 35.7514 34.8419C36.2034 35.0516 36.4746 35.2614 36.565 35.4711ZM42.8023 32.4302H39.2769V33.7933H42.7119V35.2614H39.2769V36.7294H42.8023V38.3022H37.7401V30.8573H42.8023V32.4302ZM46.5989 38.3022H43.7062V36.7294H46.5989C46.8701 36.7294 47.0509 36.7294 47.2317 36.5197C47.3221 36.4148 47.4125 36.2051 47.4125 35.9954C47.4125 35.7856 47.3221 35.5759 47.2317 35.4711C47.1413 35.3662 46.9605 35.2614 46.6893 35.2614C45.243 35.1565 43.5255 35.2613 43.5255 32.9545C43.5255 31.9059 44.0678 30.7524 45.6949 30.7524H48.678V32.535H45.8757C45.6045 32.535 45.4238 32.535 45.243 32.6399C45.0622 32.7447 45.0622 32.9545 45.0622 33.1642C45.0622 33.4788 45.243 33.5836 45.4238 33.6885C45.6045 33.7933 45.7853 33.7933 45.9661 33.7933H46.7797C47.5932 33.7933 48.1356 34.0031 48.4972 34.4225C48.7684 34.7371 48.9492 35.2614 48.9492 35.9954C48.9492 37.5682 48.1356 38.3022 46.5989 38.3022ZM54.3729 37.5682C54.0113 37.9877 53.3786 38.3022 52.4746 38.3022H49.5819V36.7294H52.4746C52.7458 36.7294 52.9266 36.7294 53.1074 36.5197C53.1978 36.4148 53.2882 36.2051 53.2882 35.9954C53.2882 35.7856 53.1978 35.5759 53.1074 35.4711C53.017 35.3662 52.8362 35.2614 52.565 35.2614C51.1187 35.1565 49.4012 35.2613 49.4012 32.9545C49.4012 31.9059 49.9435 30.7524 51.5706 30.7524H54.5537V32.535H51.8418C51.5706 32.535 51.3899 32.535 51.2091 32.6399C51.0283 32.7447 51.0283 32.9545 51.0283 33.1642C51.0283 33.4788 51.1187 33.5836 51.3899 33.6885C51.5706 33.7933 51.7514 33.7933 51.9322 33.7933H52.7458C53.5593 33.7933 54.1017 34.0031 54.4633 34.4225C54.5537 34.4225 54.5537 34.5273 54.5537 34.5273C54.8249 34.9468 54.9153 35.4711 54.9153 35.9954C54.9153 36.6245 54.7345 37.1488 54.3729 37.5682Z" fill="#1B1B1B"/>
<path d="M34.9379 32.6395C34.7571 32.5347 34.4859 32.5347 34.2147 32.5347H32.4068V34.2124H34.2147C34.4859 34.2124 34.7571 34.2124 34.9379 34.1076C35.1186 34.0027 35.209 33.6881 35.209 33.3735C35.2994 32.9541 35.1186 32.7444 34.9379 32.6395Z" fill="#1B1B1B"/>
<path d="M28.6102 20.056C28.4294 19.9512 28.1582 19.9512 27.887 19.9512H26.0791V21.6289H27.887C28.1582 21.6289 28.4294 21.6289 28.6102 21.5241C28.791 21.4192 28.8814 21.1046 28.8814 20.79C28.9718 20.3706 28.791 20.1609 28.6102 20.056Z" fill="#1B1B1B"/>
<path d="M39.548 22.5733H41.6271L40.6328 19.6372L39.548 22.5733Z" fill="#1B1B1B"/>
<path d="M24.1808 37.6727V31.6958L21.8305 34.6318L24.1808 37.6727Z" fill="#1B1B1B"/>
<path d="M27.6158 32.4302H25.7175V34.3177H27.7062C28.2486 34.3177 28.6102 34.0031 28.6102 33.3739C28.5198 32.7448 28.1582 32.4302 27.6158 32.4302Z" fill="#1B1B1B"/>
<path d="M34.9379 32.6395C34.7571 32.5347 34.4859 32.5347 34.2147 32.5347H32.4068V34.2124H34.2147C34.4859 34.2124 34.7571 34.2124 34.9379 34.1076C35.1186 34.0027 35.209 33.6881 35.209 33.3735C35.2994 32.9541 35.1186 32.7444 34.9379 32.6395Z" fill="#1B1B1B"/>
<path d="M54.5537 39.2461C55.3673 38.6169 55.9096 37.5684 56 36.4149L54.7345 34.9469C54.8249 35.2615 54.9153 35.576 54.9153 35.9955C54.9153 36.6246 54.7345 37.1489 54.3729 37.5683C54.0113 37.9878 53.3786 38.3024 52.4746 38.3024H49.5819V36.7295H52.4746C52.7458 36.7295 52.9266 36.7295 53.1074 36.5198C53.1978 36.4149 53.2882 36.2052 53.2882 35.9955C53.2882 35.7858 53.1978 35.576 53.1074 35.4712C53.017 35.3663 52.8362 35.2615 52.565 35.2615C51.1187 35.1566 49.4012 35.2615 49.4012 32.9546C49.4012 31.906 49.9435 30.9623 51.2995 30.7526L50.3051 29.5991C50.1243 29.704 50.0339 29.8088 49.9435 29.8088V29.1797H45.7853C45.1526 29.1797 44.339 29.3894 43.9774 29.8088V29.1797H36.565V29.8088C36.0226 29.2845 35.0283 29.1797 34.5763 29.1797H29.6949V29.8088C29.243 29.2845 28.1582 29.1797 27.6158 29.1797H22.1921L20.9266 30.7526L19.7514 29.1797H18.7571L21.4689 32.3254L22.8249 30.6477H27.6158C28.791 30.6477 30.1469 31.0671 30.1469 33.0594C30.1469 35.1566 28.8814 35.576 27.5254 35.576H25.7175V37.1489L27.0735 38.7218V37.1489H27.5254C28.1582 37.1489 28.9718 37.1489 29.6045 36.8343V39.6655H33.6723V36.9392H33.8531C34.1243 36.9392 34.1243 36.9392 34.1243 37.2538V39.6655H46.4181C47.2317 39.6655 48.0452 39.4558 48.4972 39.0364V39.6655H52.3842C53.1074 39.7704 53.9209 39.6655 54.5537 39.2461ZM36.565 35.4712C36.7458 35.7858 36.8362 36.2052 36.8362 36.8343V38.3024H35.2995V37.3586C35.2995 36.9392 35.2995 36.2052 35.0283 35.8906C34.8475 35.576 34.4859 35.576 33.9435 35.576H32.3164V38.3024H30.7797V30.8574H34.2147C34.9379 30.8574 35.5706 30.8574 36.0226 31.172C36.4746 31.4866 36.8362 32.0109 36.8362 32.8497C36.8362 34.0032 36.2034 34.6323 35.7514 34.842C36.2034 35.0518 36.4746 35.2615 36.565 35.4712ZM42.8023 32.4303H39.2769V33.7935H42.7119V35.2615H39.2769V36.7295H42.8023V38.3024H37.7401V30.8574H42.8023V32.4303ZM46.5989 38.3024H43.7062V36.7295H46.5989C46.8701 36.7295 47.0509 36.7295 47.2317 36.5198C47.3221 36.4149 47.4125 36.2052 47.4125 35.9955C47.4125 35.7858 47.3221 35.576 47.2317 35.4712C47.1413 35.3663 46.9605 35.2615 46.6893 35.2615C45.243 35.1566 43.5254 35.2615 43.5254 32.9546C43.5254 31.906 44.0678 30.7526 45.6949 30.7526H48.678V32.5352H45.8757C45.6045 32.5352 45.4237 32.5352 45.243 32.64C45.0622 32.7449 45.0622 32.9546 45.0622 33.1643C45.0622 33.4789 45.243 33.5837 45.4237 33.6886C45.6045 33.7935 45.7853 33.7935 45.9661 33.7935H46.7797C47.5932 33.7935 48.1356 34.0032 48.4972 34.4226C48.7684 34.7372 48.9492 35.2615 48.9492 35.9955C48.9492 37.5683 48.1356 38.3024 46.5989 38.3024Z" fill="#1B1B1B"/>
<path d="M50.9379 33.1643C50.9379 33.4789 51.0283 33.5837 51.2994 33.6886C51.4802 33.7935 51.661 33.7935 51.8418 33.7935H52.6554C53.1978 33.7935 53.5593 33.8983 53.9209 34.108L52.565 32.5352H51.7514C51.4802 32.5352 51.2994 32.5352 51.1187 32.64C51.0283 32.7449 50.9379 32.9546 50.9379 33.1643Z" fill="#1B1B1B"/>
<path d="M47.774 26.873L47.9548 27.187H48.0452L47.774 26.873Z" fill="#1B1B1B"/>
<path d="M42.8023 21.1055L44.339 25.4047V22.8881L42.8023 21.1055Z" fill="#1B1B1B"/>
<path d="M27.3447 24.5659H27.5255C27.7063 24.5659 27.7063 24.5659 27.7063 24.8805V27.1874H34.2147V26.5582C34.7571 26.8728 35.5707 27.1874 36.6554 27.1874H39.3673L39.9096 25.5096H41.1752L41.7176 27.1874H46.9605V26.1388L45.695 24.6708V25.8242H42.6215L42.1695 24.1465H39.0057L38.4633 25.8242H36.7458C36.0226 25.8242 35.1187 25.6145 34.5763 24.9853C34.0339 24.3562 33.7628 23.5173 33.7628 22.1542C33.7628 21.1056 33.9435 20.057 34.5763 19.2181C35.0283 18.589 35.8418 18.3793 36.8362 18.3793H38.2825V19.9521H36.8362C36.2938 19.9521 36.0226 20.057 35.6611 20.3716C35.3899 20.6862 35.2091 21.3153 35.2091 22.0493C35.2091 22.8882 35.2995 23.4125 35.6611 23.8319C35.9322 24.1465 36.2938 24.2513 36.7458 24.2513H37.3786L39.4577 18.4841H40.3616L39.0961 17.0161H36.7458C35.7515 17.0161 34.9379 17.2258 34.2147 17.6453V17.0161H30.2373V17.6453C29.7853 17.2258 29.243 17.0161 28.5198 17.0161H13.9661L12.9718 19.6376L11.9774 17.0161H8.00003L9.26557 18.4841H11.0735L12.6102 22.3639L13.1526 22.993L14.7797 18.3793H17.3108V25.8242H15.774V20.057L14.2373 24.2513L16.8588 27.2922H27.2543L27.3447 24.5659ZM31.5029 18.3793H33.0396V25.8242H31.5029V18.3793ZM23.5481 19.9521H20.0226V21.3153H23.4577V22.7833H20.0226V24.2513H23.5481V25.8242H18.4859V18.3793H23.5481V19.9521ZM26.0791 25.7194H24.5424V18.2744H27.9774C28.791 18.2744 29.3334 18.2744 29.7853 18.589C30.2373 18.9036 30.5085 19.4279 30.5085 20.2667C30.5085 21.4202 29.8757 22.0493 29.4238 22.259C29.7853 22.3639 30.0565 22.6785 30.1469 22.8882C30.3277 23.3076 30.4181 23.6222 30.4181 24.2513V25.7194H28.8814V24.7756C28.8814 24.3562 28.8814 23.727 28.6102 23.3076C28.5198 23.0979 28.2486 23.0979 27.7063 23.0979H26.0791V25.7194Z" fill="#1B1B1B"/>
<path d="M47.1556 16.5703V17.8076L46.6222 16.5703H42.4445V17.8076L41.9111 16.5703H36.2222C35.2445 16.5703 34.4445 16.7765 33.7333 17.189V16.5703H29.7334V17.189C29.2889 16.7765 28.7556 16.5703 28.0445 16.5703H13.7333L12.7556 19.1481L11.7778 16.5703H7.24446V17.8076L6.71113 16.5703H2.8889L1.11113 21.4165L-0.933319 26.7783H1.11113H3.60001L4.13335 25.1285H5.37779L5.91113 26.7783H11.0667V25.5409L11.5111 26.7783H14.0889L14.5333 25.5409V26.7783H26.8889V24.0974H27.0667C27.2445 24.0974 27.2445 24.0974 27.2445 24.4067V26.6752H33.6445V26.0565C34.1778 26.3658 34.9778 26.6752 36.0445 26.6752H38.7111L39.2445 25.0254H40.4889L41.0222 26.6752H46.1778V25.1285L46.9778 26.6752H51.1556V16.5703H47.1556ZM17.1111 25.2316H15.6V19.5605L13.4667 25.2316H12.1333L10 19.5605V25.2316H6.97779L6.35557 23.685H3.33335L2.80001 25.3347H1.11113L3.77779 18.0139H6.00001L8.4889 24.9223V18.0139H10.8889L12.8445 22.9632L14.6222 18.0139H17.1111V25.2316ZM23.1556 19.5605H19.6889V20.901H23.0667V22.3445H19.6889V23.7881H23.1556V25.3347H18.1778V18.0139H23.1556V19.5605ZM29.8222 22.5507C30 22.9632 30.0889 23.2725 30.0889 23.8912V25.3347H28.5778V24.4067C28.5778 23.9943 28.5778 23.3756 28.3111 22.9632C28.0445 22.6538 27.7778 22.6538 27.2445 22.6538H25.6445V25.3347H24.1334V18.0139H27.5111C28.3111 18.0139 28.8445 18.0139 29.2889 18.3232C29.7334 18.6325 30 19.1481 30 19.973C30 21.1072 29.3778 21.7258 28.9333 21.9321C29.3778 22.0352 29.6445 22.3445 29.8222 22.5507ZM32.4889 25.2316H30.9778V17.9108H32.4889V25.2316ZM50 25.2316H47.8667L45.0222 19.7667V25.2316H42L41.4667 23.685H38.3556L37.8222 25.3347H36.1334C35.4222 25.3347 34.5333 25.1285 34 24.5098C33.4667 23.8912 33.2 23.0663 33.2 21.7258C33.2 20.6947 33.3778 19.6636 34 18.8387C34.4445 18.2201 35.2445 18.0139 36.2222 18.0139H37.6445V19.5605H36.2222C35.6889 19.5605 35.4222 19.6636 35.0667 19.973C34.8 20.2823 34.6222 20.901 34.6222 21.6227C34.6222 22.4476 34.7111 22.9632 35.0667 23.3756C35.3334 23.6849 35.6889 23.7881 36.1334 23.7881H36.7556L38.8 18.117H41.0222L43.5111 25.0254V18.117H45.7334L48.3111 23.1694V18.117H49.8222V25.2316H50Z" fill="#1B1B1B"/>
<path d="M26.5334 37.3989L25.2889 35.8523V37.6051H22.3556L20.5778 35.2336L18.6222 37.6051H12.7556V30.3874H18.7111L20.5778 32.7589L21.4667 31.5216L19.2445 28.9438H11.4222V39.0487H19.2445L20.5778 37.502L21.7334 39.0487H26.5334V37.3989Z" fill="#1B1B1B"/>
<path d="M17.2889 26.6752L16.1333 25.2316H15.6V24.6129L14.2667 23.0663L13.3778 25.2316H12.1333L10 19.5605V25.2316H6.97779L6.35557 23.685H3.33335L2.71112 25.2316H1.11112L3.77779 18.0139H6.00001L8.4889 24.9223V18.0139H9.82224L8.57779 16.5703H7.24446V17.8076L6.80001 16.5703H2.8889L1.11112 21.4165L-0.933319 26.6752H1.11112H3.6889L4.22224 25.1285H5.46668L6.0889 26.6752H11.0667V25.4378L11.5111 26.6752H14.0889L14.5333 25.4378V26.6752H17.2889Z" fill="#1B1B1B"/>
<path d="M13.2 21.932L11.7778 20.2822L12.8445 22.9631L13.2 21.932Z" fill="#1B1B1B"/>
</g>
<defs>
<clipPath id="clip0">
<rect width="56" height="56" fill="white"/>
</clipPath>
</defs>
</svg>
