<svg width="56" height="56" viewBox="0 0 56 56" fill="none" xmlns="http://www.w3.org/2000/svg">
<path d="M43.856 24.8276C43.6909 24.8276 43.5563 24.966 43.5563 25.1385C43.5563 25.311 43.6924 25.4486 43.856 25.4486C44.0211 25.4486 44.1564 25.3088 44.1564 25.1385C44.1564 24.9682 44.0226 24.8276 43.856 24.8276ZM43.9244 25.3564L43.8024 25.1876V25.3556H43.6991V24.9221H43.8389C43.9445 24.9221 44.004 24.9697 44.004 25.0567C44.004 25.1169 43.9705 25.1615 43.9095 25.1779L44.0508 25.3564H43.9244Z" fill="#1B1B1B"/>
<path d="M43.8218 25.0024H43.8032V25.1155H43.8203C43.8716 25.1147 43.8992 25.0969 43.8992 25.0582C43.8992 25.021 43.8731 25.0024 43.8218 25.0024Z" fill="#1B1B1B"/>
<path d="M48.3854 14.8579H8.54791C7.95003 14.8579 7.46667 15.342 7.46667 15.9391V40.9949C7.46667 41.592 7.95003 42.0769 8.54791 42.0769H48.3854C48.9833 42.0769 49.4667 41.5928 49.4667 40.9956V15.9391C49.4667 15.342 48.9833 14.8579 48.3854 14.8579ZM43.8605 24.76C44.0642 24.76 44.2338 24.9318 44.2338 25.1385C44.2338 25.3468 44.0642 25.517 43.8605 25.517C43.65 25.517 43.4805 25.3482 43.4805 25.1385C43.4805 24.9281 43.6478 24.76 43.8605 24.76ZM40.2517 24.8582H41.6809C42.7941 24.8582 43.4307 25.3921 43.4307 26.3172C43.4307 27.0742 43.0298 27.5702 42.3041 27.7182L43.8605 29.7996H42.6744L41.3411 27.8141H41.2161V29.7996H40.2531H40.2517V24.8582ZM36.8808 24.8582H39.6129V25.6955H37.8438V26.7924H39.5489V27.6289H37.8438V28.963H39.6129V29.7996H36.8808V24.8582ZM32.7492 24.8567L34.0662 28.1755L35.401 24.8567H36.4443L34.3093 29.9245H33.7933L31.6962 24.8574H32.7492V24.8567ZM26.9467 26.3231C27.3445 25.3795 28.28 24.7176 29.3679 24.7176C30.8202 24.7176 31.9967 25.8941 31.9967 27.3449C31.9967 27.5271 31.9788 27.7048 31.9431 27.8758C31.9357 27.9138 31.9238 27.9517 31.9149 27.9903C31.9022 28.0357 31.8933 28.0818 31.8777 28.1272C31.5475 29.1965 30.5473 29.9736 29.3679 29.9736C27.9171 29.9736 26.7407 28.7972 26.7407 27.3464C26.7407 26.9835 26.8128 26.6384 26.9467 26.3231ZM25.2408 24.7481C25.655 24.7481 26.0038 24.8366 26.4262 25.0515V26.1848C26.0268 25.7929 25.6781 25.6286 25.2178 25.6286C24.3143 25.6286 23.6041 26.3774 23.6041 27.3255C23.6041 28.3257 24.292 29.0299 25.2624 29.0299C25.6989 29.0299 26.0402 28.8738 26.4254 28.4878V29.6211C25.9882 29.8293 25.6327 29.9096 25.217 29.9096C23.7499 29.9096 22.6099 28.7838 22.6099 27.3322C22.6099 25.8963 23.7803 24.7466 25.2408 24.7481ZM16.2258 29.2292C15.7507 29.6233 15.2108 29.8003 14.4642 29.8003H13.0565V24.8589H14.4694C16.0318 24.8589 17.1212 25.8747 17.1212 27.333C17.1212 28.0595 16.7888 28.7607 16.2258 29.2292ZM18.5289 29.7988H17.5659V24.8574H18.5289V29.7988ZM20.6021 29.9193C19.8696 29.9193 19.3372 29.63 18.8925 28.9779L19.5156 28.3778C19.7365 28.8068 20.1083 29.0374 20.5671 29.0374C20.997 29.0374 21.3152 28.7399 21.3152 28.3399C21.3152 28.1324 21.2193 27.9539 21.026 27.8282C20.9293 27.7687 20.7374 27.6803 20.3597 27.5471C19.4547 27.2214 19.1453 26.8727 19.1453 26.1923C19.1453 25.3839 19.8101 24.7771 20.6846 24.7771C21.226 24.7771 21.7212 24.9623 22.1369 25.3244L21.6327 25.9855C21.3814 25.7037 21.1434 25.5847 20.8557 25.5847C20.44 25.5847 20.1366 25.8212 20.1366 26.1328C20.1366 26.3982 20.3069 26.541 20.8861 26.7544C21.9808 27.1545 22.3065 27.51 22.3065 28.2945C22.3065 29.2523 21.6037 29.9171 20.6021 29.9193ZM48.7119 41.3265H22.4849C39.45 38.4011 48.7119 31.8654 48.7119 31.8654V41.3265Z" fill="#1B1B1B"/>
<path d="M15.5945 26.0954C15.277 25.8076 14.8992 25.6953 14.2775 25.6953H14.0187V28.9628H14.2775C14.8984 28.9628 15.2926 28.8431 15.5945 28.5702C15.9284 28.2735 16.1291 27.7998 16.1291 27.3253C16.1291 26.8517 15.9284 26.3921 15.5945 26.0954Z" fill="#1B1B1B"/>
<path d="M41.5114 25.6348H41.2162V27.1309H41.4965C42.1122 27.1309 42.4379 26.864 42.4379 26.3665C42.4379 25.8869 42.1122 25.6348 41.5114 25.6348Z" fill="#1B1B1B"/>
</svg>
