<svg width="56" height="56" viewBox="0 0 56 56" fill="none" xmlns="http://www.w3.org/2000/svg">
<path d="M21.28 15.8667C14.6929 15.8667 9.33334 21.2263 9.33334 27.8134C9.33334 34.4005 14.6929 39.76 21.28 39.76C23.7703 39.76 26.0839 38.9922 28 37.6834C29.9159 38.9915 32.2293 39.76 34.72 39.76C41.3091 39.76 46.6667 34.4025 46.6667 27.8134C46.6667 21.2242 41.3091 15.8667 34.72 15.8667C32.2293 15.8667 29.9159 16.6352 28 17.9434C26.0839 16.6346 23.7703 15.8667 21.28 15.8667ZM34.72 17.36C40.5021 17.36 45.1733 22.0313 45.1733 27.8134C45.1733 33.5954 40.5021 38.2667 34.72 38.2667C32.7035 38.2667 30.829 37.6887 29.2337 36.7034C31.6779 34.5143 33.2267 31.3448 33.2267 27.8134C33.2267 24.2819 31.6779 21.1125 29.2337 18.9234C30.829 17.9381 32.7035 17.36 34.72 17.36Z" fill="#1B1B1B"/>
</svg>
