<svg width="56" height="56" viewBox="0 0 56 56" fill="none" xmlns="http://www.w3.org/2000/svg">
<path d="M12.0004 23.7303C11.8323 23.3932 11.5665 23.1152 11.2366 22.9065C10.8924 22.6957 10.4861 22.548 10.0217 22.4604C9.54922 22.3749 9.00339 22.3362 8.37101 22.3301L5.45143 22.3321C5.14797 22.3362 4.85062 22.5724 4.77933 22.8657L2.81496 31.4218C2.74368 31.711 2.93411 31.9534 3.23757 31.9534H4.63575C4.93921 31.9534 5.23962 31.7181 5.30683 31.4218L5.78647 29.3444C5.85062 29.0552 6.15001 28.8138 6.45653 28.8138H6.85674C8.56653 28.8118 9.89036 28.4625 10.8415 27.7629C11.7977 27.0623 12.2692 26.1366 12.2692 24.99C12.2682 24.4879 12.1857 24.0663 12.0004 23.7303ZM8.98506 26.5256C8.56245 26.8352 7.97487 26.99 7.21723 26.99H6.87507C6.57059 26.99 6.38423 26.7497 6.45042 26.4564L6.871 24.6397C6.93006 24.3484 7.23658 24.1071 7.53699 24.1091L7.99524 24.1061C8.52987 24.1061 8.93822 24.1987 9.21113 24.378C9.48099 24.5551 9.61643 24.8372 9.61439 25.211C9.62254 25.7792 9.40564 26.2161 8.98506 26.5256Z" fill="#1B1B1B"/>
<path d="M51.8581 23.0004L51.7705 23.0269L51.6534 23.0432L51.5098 23.0208L51.4365 22.9495L51.4029 22.8375L51.4008 22.6695V22.0472H51.8682V21.8548H51.4008V21.4668H51.1697V21.8548H51.0128V22.0472H51.1697V22.7713L51.2776 23.1297L51.5953 23.2438L51.7287 23.2326L51.8703 23.2051V23.0004H51.8581Z" fill="#1B1B1B"/>
<path d="M54.0261 21.9534L53.6921 21.8159L53.4456 21.8658L53.1951 22.0349L53.0495 21.8729L52.8132 21.8169L52.5862 21.8668L52.3713 22.0053V21.8546H52.1442V23.2141H52.3703V22.1988L52.5607 22.0807L52.7501 22.0338L52.9049 22.0613L52.9813 22.1397L53.0149 22.2701L53.0261 22.4381V23.2151H53.2532V22.3455L53.2491 22.2732L53.245 22.207L53.4385 22.0837L53.63 22.0359L53.7797 22.0634L53.8611 22.1418L53.8896 22.2732L53.9049 22.4391V23.2161H54.133V22.3332L54.0261 21.9534Z" fill="#1B1B1B"/>
<path d="M18.7428 24.9534C18.2153 24.656 17.3823 24.5073 16.2438 24.5073C15.6806 24.5073 15.1195 24.5511 14.5523 24.6387C14.1338 24.7028 14.093 24.7151 13.8354 24.7711C13.3038 24.8872 13.2203 25.4177 13.2203 25.4177L13.0492 26.1214C12.9525 26.5705 13.2112 26.5532 13.3191 26.5155C13.5513 26.4462 13.6806 26.375 14.1552 26.269C14.6083 26.1662 15.0859 26.0888 15.4647 26.0939C16.0238 26.0939 16.4515 26.153 16.7366 26.2731C17.0177 26.3953 17.1582 26.6051 17.1582 26.9086L17.1338 27.1061L16.9322 27.2304C16.1389 27.2803 15.5656 27.3536 14.87 27.4544C14.1898 27.5491 13.593 27.7151 13.0971 27.9422C12.5645 28.1764 12.1694 28.4911 11.8934 28.8913C11.6266 29.2935 11.4932 29.7813 11.4932 30.3536C11.4932 30.8923 11.6867 31.3373 12.0625 31.6815C12.4403 32.0196 12.9393 32.1846 13.536 32.1846C13.9138 32.1825 14.2061 32.153 14.4138 32.1031L15.091 31.8699L15.6643 31.5522L16.1918 31.2039L16.199 31.2141L16.146 31.4381L16.1429 31.4473V31.4493C16.0859 31.7222 16.2509 31.9463 16.5167 31.9727L16.5218 31.9789H16.5462H17.6185H17.8201L17.8385 31.9707C18.1175 31.9381 18.3792 31.7141 18.4403 31.4473L19.4597 27.0348L19.5126 26.6754L19.5371 26.3383C19.5411 25.713 19.2713 25.2497 18.7428 24.9534ZM16.4882 29.9147L16.2702 30.2019L15.7203 30.486C15.4617 30.5909 15.2163 30.6438 14.9892 30.6438C14.645 30.6438 14.3751 30.5939 14.1928 30.4921L13.923 29.9676C13.923 29.6835 13.9881 29.4585 14.1277 29.2854L14.7203 28.8821C14.9739 28.7966 15.2835 28.7243 15.6419 28.6744C15.9617 28.6346 16.5931 28.5623 16.6755 28.5603L16.7723 28.7304C16.7529 28.8271 16.5737 29.5766 16.4882 29.9147Z" fill="#1B1B1B"/>
<path d="M44.138 24.9593C43.6075 24.6619 42.7755 24.5122 41.6401 24.5122C41.0769 24.5122 40.5148 24.556 39.9496 24.6466C39.5301 24.7077 39.4883 24.721 39.2297 24.776C38.6991 24.891 38.6166 25.4236 38.6166 25.4236L38.4455 26.1263C38.3498 26.5754 38.6024 26.555 38.7205 26.5204C38.9537 26.4511 39.0789 26.3829 39.5494 26.2729C40.0005 26.1711 40.4822 26.0957 40.862 26.0978C41.4191 26.0978 41.8468 26.1578 42.1309 26.278C42.414 26.4002 42.5525 26.612 42.5525 26.9124L42.5311 27.109L42.3315 27.2363C41.5301 27.2841 40.9557 27.3574 40.2673 27.4583C39.5891 27.553 38.9903 27.7179 38.4934 27.946C37.9628 28.1813 37.5626 28.4959 37.2897 28.8972C37.0199 29.2994 36.8885 29.7862 36.8885 30.3534C36.8885 30.8962 37.0799 31.3412 37.4608 31.6833C37.8406 32.0204 38.3345 32.1895 38.9313 32.1895C39.307 32.1854 39.5993 32.1609 39.8081 32.107L40.4832 31.8768L41.0616 31.5591L41.5851 31.2068L41.5942 31.218L41.5464 31.444L41.5413 31.4481L41.5433 31.4522C41.4802 31.7251 41.6462 31.9512 41.915 31.9756L41.917 31.9807H41.9415C42.1177 31.9807 42.7266 31.9807 43.0169 31.9807H43.2144L43.2358 31.9736C43.5118 31.94 43.7725 31.7159 43.8305 31.4461L44.8529 27.0397L44.9069 26.6782L44.9364 26.3401C44.9374 25.7169 44.6706 25.2556 44.138 24.9593ZM41.8885 29.9206L41.6614 30.2108L41.1166 30.4929C40.858 30.5968 40.6115 30.6508 40.3885 30.6508C40.0331 30.6508 39.7704 30.5998 39.5932 30.498L39.3203 29.9756C39.3203 29.6905 39.3865 29.4674 39.5199 29.2913C39.6553 29.1253 39.862 28.9888 40.1187 28.889C40.3692 28.8035 40.6787 28.7342 41.0392 28.6823C41.357 28.6426 41.9863 28.5682 42.0678 28.5672L42.1665 28.7373C42.1523 28.834 41.972 29.5805 41.8885 29.9206Z" fill="#1B1B1B"/>
<path d="M37.3916 23.7621C37.2164 23.423 36.9537 23.149 36.6217 22.9352C36.2816 22.7234 35.8783 22.5747 35.4068 22.4891C34.9435 22.4067 34.3905 22.3619 33.7622 22.3608L30.8386 22.3629C30.5341 22.368 30.2418 22.6042 30.1716 22.8944L28.2051 31.4546C28.1339 31.7448 28.3294 31.9851 28.6267 31.9851L30.027 31.9831C30.3243 31.9851 30.6288 31.7468 30.6991 31.4536L31.1726 29.3751C31.2418 29.0859 31.5422 28.8425 31.8447 28.8446H32.2449C33.9567 28.8446 35.2836 28.4922 36.2388 27.7947C37.1828 27.089 37.6604 26.1653 37.6604 25.0177C37.6553 24.5177 37.5688 24.0951 37.3916 23.7621ZM34.3763 26.5615C33.9547 26.8649 33.3661 27.0197 32.6125 27.0197H32.2642C31.9638 27.0228 31.7693 26.7784 31.8365 26.4871L32.2602 24.6735C32.3223 24.3833 32.6257 24.1399 32.9282 24.1429L33.3814 24.1399C33.919 24.1429 34.3223 24.2315 34.5972 24.4107C34.8712 24.59 35.0005 24.871 35.0036 25.2437C35.0066 25.812 34.7958 26.2499 34.3763 26.5615Z" fill="#1B1B1B"/>
<path d="M49.3804 22.9625C49.4446 22.6703 49.2613 22.433 48.9609 22.4371H47.7083C47.4517 22.4371 47.2205 22.6275 47.1075 22.8617L47.0383 22.9697L46.9751 23.2466L45.2246 31.2039L45.1676 31.4483L45.1696 31.4544C45.1116 31.7161 45.2725 31.9137 45.5209 31.9514L45.5423 31.9809H46.8427C47.0973 31.9809 47.3366 31.7874 47.4456 31.5491L47.5128 31.4473L49.3845 22.9635L49.3804 22.9625Z" fill="#1B1B1B"/>
<path d="M28.2438 24.6144C27.9129 24.6184 26.5677 24.6144 26.5677 24.6144C26.2662 24.6144 25.8793 24.8578 25.6878 25.148C25.6878 25.148 23.6858 28.5839 23.4913 28.9291L23.2591 28.926L22.6359 25.1714C22.5666 24.8761 22.2581 24.6235 21.8742 24.6235L20.6216 24.6256C20.3202 24.6256 20.1348 24.8659 20.2031 25.1592C20.2031 25.1592 21.1542 30.5716 21.3446 31.8456C21.4332 32.5482 21.3334 32.6735 21.3334 32.6735L20.0951 34.8303C19.9118 35.1236 20.0106 35.3629 20.311 35.3629L21.7591 35.3609C22.0605 35.3609 22.4566 35.1236 22.6359 34.8293L28.2062 25.4077C28.2062 25.4087 28.7418 24.6032 28.2438 24.6144Z" fill="#1B1B1B"/>
</svg>
