<svg width="56" height="56" viewBox="0 0 56 56" fill="none" xmlns="http://www.w3.org/2000/svg">
<path d="M23.5363 21.6724L21.4966 33.6417H24.7587L26.8 21.6724H23.5363Z" fill="#1B1B1B"/>
<path d="M18.7615 21.6856L15.5665 29.8484L15.2259 28.6159C14.5958 27.1308 12.807 24.998 10.7069 23.6539L13.6284 33.6357L17.0801 33.6298L22.2174 21.6831L18.7615 21.6856Z" fill="#1B1B1B"/>
<path d="M13.9875 22.5422C13.7979 21.8131 13.2483 21.5958 12.5662 21.5698H7.50863L7.46667 21.8081C11.4025 22.7629 14.0068 25.0635 15.0874 27.8297L13.9875 22.5422Z" fill="#1B1B1B"/>
<path d="M33.4115 23.9671C34.4787 23.9503 35.2523 24.1835 35.853 24.4252L36.1475 24.5636L36.5888 21.9694C35.9428 21.7269 34.9301 21.4668 33.6665 21.4668C30.443 21.4668 28.171 23.0903 28.1534 25.4169C28.1324 27.136 29.7718 28.0958 31.0102 28.6689C32.2813 29.2562 32.7075 29.6296 32.7017 30.1539C32.6916 30.9552 31.6881 31.3227 30.751 31.3227C29.4446 31.3227 28.7508 31.1423 27.6793 30.6959L27.259 30.5046L26.8 33.1836C27.5636 33.5184 28.9723 33.8062 30.4347 33.8213C33.8637 33.8213 36.0921 32.2171 36.1156 29.7311C36.1299 28.371 35.2598 27.3332 33.3746 26.4816C32.2335 25.9261 31.5354 25.557 31.5422 24.9965C31.5422 24.499 32.1345 23.9671 33.4115 23.9671Z" fill="#1B1B1B"/>
<path d="M44.9605 21.6855H42.4401C41.6573 21.6855 41.075 21.8987 40.731 22.6789L35.8874 33.6482H39.3131C39.3131 33.6482 39.8719 32.1732 39.9986 31.8502C40.3736 31.8502 43.702 31.8552 44.176 31.8552C44.2733 32.273 44.5737 33.6482 44.5737 33.6482H47.6L44.9605 21.6855ZM40.9374 29.4003C41.2059 28.7131 42.237 26.0551 42.237 26.0551C42.2194 26.0878 42.503 25.3629 42.6716 24.9124L42.8915 25.9444C42.8915 25.9444 43.5165 28.8021 43.6474 29.4003H40.9374Z" fill="#1B1B1B"/>
</svg>
