<svg width="380" height="93" viewBox="0 0 380 93" fill="none" xmlns="http://www.w3.org/2000/svg">
<path d="M113.2 41.4043V52.4398H110.728V36.8308H112.755L121.617 48.1059V36.852H124.089V52.4398H121.952L113.2 41.4043Z" fill="white"/>
<path d="M138.349 50.2658V52.4398H127.615V36.8308H138.147V39.0083H130.105V43.4725H137.091V45.4985H130.105V50.2693L138.349 50.2658Z" fill="white"/>
<path d="M146.458 36.8974H148.771L150.711 42.2178L152.65 36.8974H154.984L152.296 43.8245L154.635 49.5854L159.527 36.834H162.214L155.821 52.4429H153.656L150.725 45.4524L147.772 52.4429H145.614L139.221 36.834H141.909L146.801 49.5854L149.146 43.8245L146.458 36.8974Z" fill="white"/>
<path d="M181.588 36.8308V52.4398H179.115V45.5584H171.228V52.4398H168.738V36.8308H171.228V43.3598H179.119V36.8308H181.588Z" fill="white"/>
<path d="M195.843 50.2658V52.4398H185.113V36.8308H195.646V39.0083H187.603V43.4725H194.59V45.4985H187.603V50.2693L195.843 50.2658Z" fill="white"/>
<path d="M198.4 52.4393V36.8304H205.224C205.896 36.8232 206.561 36.9741 207.163 37.2708C207.745 37.5573 208.266 37.9533 208.696 38.4371C209.128 38.9182 209.471 39.4716 209.71 40.072C209.944 40.6569 210.064 41.2813 210.063 41.9112C210.068 42.5915 209.941 43.2663 209.689 43.8985C209.452 44.505 209.091 45.0558 208.629 45.5157C208.173 45.9648 207.619 46.3035 207.011 46.5058L210.692 52.4393H207.912L204.518 46.9956H200.89V52.4253L198.4 52.4393ZM200.89 44.8322H205.189C205.627 44.8384 206.054 44.6955 206.4 44.427C206.761 44.1473 207.048 43.7846 207.238 43.3699C207.449 42.9165 207.555 42.4216 207.548 41.9218C207.553 41.4304 207.439 40.9451 207.217 40.5067C206.994 40.0683 206.669 39.6897 206.27 39.4025C205.916 39.1507 205.492 39.0163 205.058 39.0185H200.89V44.8322Z" fill="white"/>
<path d="M212.97 52.4398V36.8308H215.467V52.4398H212.97Z" fill="white"/>
<path d="M230.443 39.0083H225.244V52.4398H222.772V39.0083H217.53V36.8308H230.443V39.0083Z" fill="white"/>
<path d="M235.579 36.8308H237.917L243.999 52.4398H241.399L239.87 48.2116H233.611L232.075 52.4398H229.475L235.579 36.8308ZM239.213 46.3724L236.741 39.5368L234.268 46.3724H239.213Z" fill="white"/>
<path d="M251.734 52.5488C250.736 52.5554 249.749 52.3387 248.845 51.9146C247.954 51.4891 247.156 50.8901 246.5 50.1529C245.827 49.4063 245.296 48.5429 244.935 47.6054C244.559 46.6334 244.368 45.5996 244.374 44.5576C244.357 42.5218 245.114 40.5552 246.493 39.054C247.156 38.3304 247.959 37.7469 248.852 37.338C249.775 36.9148 250.779 36.7006 251.794 36.7109C253.117 36.6654 254.426 36.9888 255.574 37.6446C256.561 38.2317 257.36 39.0873 257.877 40.111L255.98 41.4746C255.598 40.674 254.982 40.0072 254.214 39.5614C253.46 39.1365 252.607 38.9166 251.742 38.9236C251.042 38.9129 250.35 39.0713 249.725 39.3852C249.135 39.6964 248.619 40.1287 248.209 40.6536C247.776 41.1988 247.443 41.8169 247.228 42.4788C246.993 43.1688 246.874 43.8925 246.874 44.621C246.867 45.3772 246.994 46.1286 247.249 46.8408C247.485 47.5066 247.844 48.1221 248.308 48.6554C248.753 49.169 249.301 49.5842 249.915 49.8745C250.535 50.1698 251.214 50.3204 251.9 50.315C252.767 50.3188 253.62 50.0952 254.373 49.6667C255.218 49.1679 255.955 48.5068 256.542 47.7217V50.2269C255.171 51.7772 253.569 52.5512 251.734 52.5488ZM256.273 46.3722H253.013V44.5294H258.368V52.4431H256.273V46.3722Z" fill="white"/>
<path d="M271.92 50.2658V52.4398H261.19V36.8308H271.722V39.0083H263.68V43.4725H270.666V45.4985H263.68V50.2693L271.92 50.2658Z" fill="white"/>
<path d="M279.92 52.4393V36.8303H286.49C287.162 36.8239 287.826 36.9748 288.429 37.2708C289.598 37.8578 290.507 38.8556 290.983 40.0719C291.214 40.6577 291.334 41.2815 291.336 41.9112C291.339 42.7677 291.14 43.6128 290.753 44.3776C290.377 45.1413 289.812 45.7963 289.111 46.2803C288.383 46.7761 287.519 47.0335 286.638 47.0167H282.41V52.4463L279.92 52.4393ZM282.393 44.8321H286.462C286.897 44.8395 287.322 44.7046 287.673 44.4481C288.04 44.174 288.33 43.8098 288.514 43.391C288.724 42.9164 288.829 42.4019 288.821 41.883C288.833 41.3597 288.711 40.842 288.468 40.3785C288.253 39.9699 287.938 39.622 287.553 39.3672C287.196 39.134 286.779 39.0114 286.352 39.0149H282.41L282.393 44.8321Z" fill="white"/>
<path d="M300.131 52.5489C299.087 52.5623 298.054 52.3369 297.111 51.89C296.209 51.4576 295.403 50.8489 294.741 50.1001C293.407 48.5897 292.668 46.648 292.66 44.6352C292.656 43.6152 292.851 42.6042 293.232 41.6579C293.606 40.7247 294.147 39.8673 294.829 39.128C295.503 38.3948 296.311 37.7969 297.21 37.3663C298.143 36.927 299.165 36.7053 300.198 36.718C301.254 36.7026 302.3 36.9356 303.249 37.398C304.144 37.8462 304.941 38.4665 305.595 39.2232C306.25 39.9768 306.765 40.8406 307.117 41.7742C307.827 43.6647 307.818 45.7492 307.092 47.6337C306.739 48.5693 306.211 49.4292 305.535 50.1671C304.865 50.9047 304.056 51.5033 303.154 51.9288C302.205 52.3581 301.172 52.57 300.131 52.5489ZM295.186 44.6352C295.185 45.3649 295.305 46.0897 295.539 46.781C295.755 47.4436 296.092 48.061 296.531 48.6026C296.955 49.1324 297.489 49.564 298.096 49.8676C298.743 50.185 299.456 50.3433 300.176 50.3291C300.912 50.345 301.64 50.1792 302.296 49.8464C302.907 49.531 303.442 49.0846 303.86 48.5392C304.287 47.9875 304.616 47.3665 304.832 46.7035C305.05 46.0357 305.161 45.3376 305.16 44.6352C305.163 43.91 305.043 43.1894 304.807 42.5035C304.578 41.8444 304.235 41.2303 303.793 40.6889C303.361 40.1621 302.823 39.7312 302.214 39.424C301.563 39.1159 300.85 38.9581 300.13 38.9624C299.409 38.9667 298.698 39.1329 298.05 39.4487C297.445 39.7656 296.916 40.2077 296.496 40.7453C296.068 41.2921 295.741 41.91 295.528 42.5705C295.306 43.2364 295.193 43.9335 295.193 44.6352H295.186Z" fill="white"/>
<path d="M310.225 52.4398V36.8308H312.715V50.2658H321.076V52.4398H310.225Z" fill="white"/>
<path d="M327.614 36.8308H329.948L336.03 52.4398H333.438L331.909 48.2116H325.643L324.106 52.4398H321.507L327.614 36.8308ZM331.245 46.3724L328.772 39.5368L326.3 46.3724H331.245Z" fill="white"/>
<path d="M340.46 41.4043V52.4398H337.987V36.8308H340.015L348.873 48.1059V36.852H351.345V52.4398H349.226L340.46 41.4043Z" fill="white"/>
<path d="M354.874 52.4395V36.8306H360.427C361.905 36.7795 363.368 37.1459 364.647 37.8876C365.751 38.5625 366.635 39.5414 367.194 40.7064C367.776 41.9323 368.07 43.2749 368.052 44.6315C368.087 46.0651 367.766 47.4851 367.116 48.7645C366.516 49.912 365.593 50.8598 364.46 51.4917C363.223 52.1582 361.832 52.491 360.427 52.4571L354.874 52.4395ZM365.541 44.6139C365.561 43.6127 365.353 42.6201 364.933 41.7105C364.552 40.9008 363.948 40.2154 363.192 39.7339C362.36 39.2299 361.399 38.9778 360.427 39.0081H357.364V50.2655H360.427C361.41 50.2974 362.38 50.0361 363.213 49.515C363.972 49.0193 364.572 48.3175 364.944 47.4925C365.353 46.5884 365.556 45.6055 365.541 44.6139Z" fill="white"/>
<path d="M21.5578 41.0536V68.7777L15.9948 64.772V43.5547C15.9948 42.1739 17.115 41.0536 18.4986 41.0536H21.5578Z" fill="white"/>
<path d="M38.6717 17.2899L70.0352 33.0751C69.6112 33.7798 68.7024 35.1183 67.511 35.8912C65.8526 36.9772 63.3157 37.2828 63.3157 37.2828C63.3157 37.2828 63.2299 38.7249 60.7334 39.1593C59.1496 39.4258 57.5412 39.5165 55.9374 39.4296C55.6229 35.5265 53.849 31.8857 50.9697 29.2336C47.6818 26.1866 43.3576 24.5069 38.8761 24.5359C29.8394 24.5359 22.4384 31.1026 21.8124 39.4372C20.2086 39.5242 18.6002 39.4336 17.0163 39.1669C14.5173 38.7325 14.434 37.2904 14.434 37.2904C14.434 37.2904 12.248 36.9848 10.5922 35.8988C9.38052 35.1082 8.45665 33.7267 8.04773 33.0347L38.6717 17.2899Z" fill="white"/>
<path d="M70.6931 29.2042C70.4077 30.2252 70.3657 31.2997 70.5704 32.3401L38.6514 16.1661L7.5251 32.2705C7.71602 31.2516 7.66963 30.202 7.38956 29.2042C7.04942 28.1248 6.45753 27.1431 5.66345 26.3415L38.8636 9.36871L72.4192 26.3415C71.6252 27.1431 71.0333 28.1248 70.6931 29.2042Z" fill="white"/>
<path d="M53.3462 40.9406V70.8587L39.0705 80.6592L24.7366 70.8159V40.9406C24.7366 33.5587 31.1415 27.5877 39.0427 27.5877C42.789 27.5646 46.4038 28.9635 49.153 31.5003C50.466 32.7016 51.5161 34.1601 52.2376 35.7845C52.9591 37.4088 53.3365 39.1642 53.3462 40.9406Z" fill="white"/>
<path d="M55.7304 41.0536V68.7777L62.0881 64.7695V43.5547C62.0881 42.1739 60.8079 41.0536 59.2266 41.0536H55.7304Z" fill="white"/>
</svg>
